<svg xmlns="http://www.w3.org/2000/svg" viewBox="0 0 24 24">
  <path fill="#24292D" d="M0 0h24v24H0z" />
  <circle cx="12" cy="12" r="7" fill="#F6F7F8" />
  <path fill="#D7DCDF" fill-rule="evenodd" d="M18.787 13.725C18.0186 16.7568 15.2718 19 12.0011 19c-3.38401 0-6.20717-2.4012-6.85852-5.5928.88722-.1385 1.78463-.1667 2.55754.0266.8494.2123 1.56931.5207 2.24649.8109 1.47449.6316 2.74639 1.1766 4.71139.4541 2.2636-.8322 3.6468-.9578 4.129-.9738Z" clip-rule="evenodd" />
  <path fill="#8E979F" fill-rule="evenodd" d="M11.9792 19.0001c-2.64183-.0076-4.9394-1.4786-6.12471-3.645 1.94027.9616 3.85915 1.0844 7.11521-.4923 2.9995-1.4523 4.876-.8953 5.6296-.5237-.9605 2.7098-3.5424 4.6523-6.5793 4.661h-.0408Z" clip-rule="evenodd" />
</svg>